HIERARCHY
ROOT Hips
{
  OFFSET 263.056 91.6644 -274.608
  CHANNELS 6 Xposition Yposition Zposition Zrotation Xrotation Yrotation
  JOINT LeftUpLeg
  {
    OFFSET 8.64259 1.95398 -2.38835
    CHANNELS 3 Zrotation Xrotation Yrotation
    JOINT LeftLeg
    {
      OFFSET 43.7702 0 0
      CHANNELS 3 Zrotation Xrotation Yrotation
      JOINT LeftFoot
      {
        OFFSET 40.6238 0 0
        CHANNELS 3 Zrotation Xrotation Yrotation
        JOINT LeftToeBase
        {
          OFFSET 12.7242 0 0
          CHANNELS 3 Zrotation Xrotation Yrotation
          End Site
          {
            OFFSET 0 0 0
          }
        }
      }
    }
  }
  JOINT RightUpLeg
  {
    OFFSET -8.2249 1.95398 -2.59336
    CHANNELS 3 Zrotation Xrotation Yrotation
    JOINT RightLeg
    {
      OFFSET 43.5653 0 0
      CHANNELS 3 Zrotation Xrotation Yrotation
      JOINT RightFoot
      {
        OFFSET 40.6238 0 0
        CHANNELS 3 Zrotation Xrotation Yrotation
        JOINT RightToeBase
        {
          OFFSET 12.7242 0 0
          CHANNELS 3 Zrotation Xrotation Yrotation
          End Site
          {
            OFFSET 0 0 0
          }
        }
      }
    }
  }
  JOINT Spine
  {
    OFFSET 0.165834 0.87714 6.61349
    CHANNELS 3 Zrotation Xrotation Yrotation
    JOINT Spine1
    {
      OFFSET 7.38963 1.71661e-005 0
      CHANNELS 3 Zrotation Xrotation Yrotation
      JOINT Spine2
      {
        OFFSET 11.9445 1.14441e-005 0
        CHANNELS 3 Zrotation Xrotation Yrotation
        JOINT Spine3
        {
          OFFSET 14.7254 4.19617e-005 0
          CHANNELS 3 Zrotation Xrotation Yrotation
          JOINT Spine4
          {
            OFFSET 10.9679 0 0
            CHANNELS 3 Zrotation Xrotation Yrotation
            JOINT RightShoulder
            {
              OFFSET 2.46616 -1.6653 3.69651
              CHANNELS 3 Zrotation Xrotation Yrotation
              JOINT RightArm
              {
                OFFSET 13.0012 0 0
                CHANNELS 3 Zrotation Xrotation Yrotation
                JOINT RightForeArm
                {
                  OFFSET 28.7848 1.52588e-005 0
                  CHANNELS 3 Zrotation Xrotation Yrotation
                  JOINT RightHand
                  {
                    OFFSET 26.5688 1.52588e-005 0
                    CHANNELS 3 Zrotation Xrotation Yrotation
                    End Site
                    {
                      OFFSET 0 0 0
                    }
                  }
                }
              }
            }
            JOINT LeftShoulder
            {
              OFFSET 2.38034 -1.29275 -3.7523
              CHANNELS 3 Zrotation Xrotation Yrotation
              JOINT LeftArm
              {
                OFFSET 16.3182 6.10352e-005 0
                CHANNELS 3 Zrotation Xrotation Yrotation
                JOINT LeftForeArm
                {
                  OFFSET 27.0901 0 0
                  CHANNELS 3 Zrotation Xrotation Yrotation
                  JOINT LeftHand
                  {
                    OFFSET 24.5451 1.52588e-005 0
                    CHANNELS 3 Zrotation Xrotation Yrotation
                    End Site
                    {
                      OFFSET 0 0 0
                    }
                  }
                }
              }
            }
            JOINT Neck
            {
              OFFSET 5.0226 -0.0266342 0
              CHANNELS 3 Zrotation Xrotation Yrotation
              JOINT Head
              {
                OFFSET 6.69364 2.86102e-005 0
                CHANNELS 3 Zrotation Xrotation Yrotation
                End Site
                {
                  OFFSET 0 0 0
                }
              }
            }
          }
        }
      }
    }
  }
}
MOTION
Frames:	15
Frame Time:	0.0416667
18.3393 86.0315 -2.27296 -75.159 -30.9145 -94.3426 -170.594 -1.98826 104.043 -8.54107 16.0058 1.22488 30.4194 -13.0974 -7.08376 42.0493 18.6116 22.0703 170.823 57.4435 90.0616 -55.2764 15.2659 6.82795 70.0419 -2.9077 -1.50393 60.6414 2.91515 4.43153 -0.460997 8.52159 -88.8785 9.82899 -0.410518 2.25604 -1.84388 -0.310878 2.2719 -24.3662 -1.06946 2.02852 -4.35358 -1.06945 2.02852 77.7429 -52.0223 -118.352 27.641 -18.1178 33.4937 -19.314 -21.1684 -52.5826 -8.05694 -0.564568 0.703987 -100.269 -40.0892 59.5492 -16.7261 -6.10297 22.2279 20.1024 -1.75072 -86.2655 21.2038 2.66769 8.80049 7.93037 -12.6856 5.943 10.5429 -14.5305 -8.12823 
8.70883 86.299 -0.0142951 -74.9611 -26.5159 -98.9218 -174.583 -4.3178 98.5072 -15.8933 20.2983 2.05526 30.5758 -14.3888 -4.23161 29.0109 -1.03651 11.1716 171.365 54.9935 89.3691 -58.4841 17.0132 5.36873 74.1289 -4.60513 -2.24444 43.8783 1.6259 11.1361 -0.449345 8.246 -88.918 10.3811 -0.399511 2.18571 -1.2916 -0.302951 2.20114 -23.8149 -1.03782 1.96473 -3.80225 -1.03782 1.96473 77.3729 -53.6644 -118.201 20.3512 -15.9895 28.7811 -20.2033 -19.2328 -53.6924 -11.1806 -0.593633 0.0242065 -100.788 -40.7156 59.012 -24.4055 0.749043 24.6189 16.3692 3.17689 -71.9884 20.2297 2.07671 6.47882 6.1417 -11.4499 9.03687 11.5432 -13.6311 -5.81015 
-0.322416 85.6932 1.90488 -74.2883 -20.3466 -100.194 -175.193 3.34261 95.3383 -39.9542 19.613 2.00336 37.9779 -12.7978 -2.09478 31.9227 2.97845 9.62441 172.365 50.0092 92.474 -61.3518 16.7751 3.98272 81.2073 -6.4843 -2.785 33.7994 0.102464 11.7166 -0.0940857 8.11603 -89.2102 10.6382 0.175937 1.55413 -1.03362 0.244168 1.54486 -23.5615 -0.299232 1.53517 -3.5488 -0.299211 1.53517 78.6094 -53.4572 -116.535 14.7112 -15.8103 21.5149 -21.6672 -17.018 -57.6934 -15.6407 -0.84385 1.30805 -101.233 -41.5768 58.7047 -32.1774 6.14035 25.9136 15.3622 7.53208 -59.4568 15.7027 1.31411 4.37915 8.59444 -10.0152 10.1568 10.3873 -12.2121 -2.5935 
-8.97497 85.6552 3.25516 -74.2815 -13.625 -100.35 -173.538 11.9299 94.0017 -58.3519 19.4833 0.0521181 40.0313 -12.7639 -2.38094 34.6668 6.60426 7.19793 174.614 42.3264 95.5253 -59.7856 19.0437 1.91645 85.092 -8.19271 -3.20108 38.4087 0.874648 12.8794 0.381295 8.19372 -89.4225 10.4806 1.02457 1.05677 -1.1903 1.0701 1.01064 -23.7236 0.659624 1.31581 -3.71094 0.659619 1.31579 78.9691 -52.0923 -116.562 11.4844 -15.0523 12.6065 -24.3748 -14.4317 -63.4466 -19.3514 -1.1928 2.81403 -100.801 -41.4405 59.3192 -39.5126 10.2932 26.7107 12.0654 12.5477 -48.4412 9.25903 0.727681 3.65021 10.834 -8.86522 9.18101 11.8846 -10.6203 0.707731 
-17.4961 86.0378 4.05018 -73.5068 -7.23924 -100.507 -171.543 22.9464 93.245 -71.4014 21.3073 -1.46076 42.0112 -11.9183 1.41845 39.4722 11.9683 0.801938 176.896 34.3304 96.3145 -55.8842 16.5963 0.261028 86.0063 -9.06349 -3.43253 44.1802 1.8847 12.7097 0.95192 8.18655 -89.5534 10.4949 2.10108 0.700599 -1.17446 2.12986 0.60741 -23.7188 1.79337 1.29981 -3.70615 1.79337 1.2998 80.2664 -48.8972 -115.94 12.0136 -14.1975 5.32658 -29.8744 -8.42215 -72.786 -21.0075 -1.30615 3.04314 -100.269 -41.8177 60.3202 -45.2654 13.7292 28.0903 10.2459 18.1485 -42.5231 -1.07841 0.00933877 2.66467 14.0213 -7.48508 10.6159 9.02002 -9.80419 1.51318 
-26.7581 87.2674 4.17953 -72.7403 -4.32134 -101.791 -171.405 33.8969 91.3867 -76.5868 18.5262 -1.44837 44.3883 -10.5086 1.72178 35.2756 7.29859 3.24135 177.287 24.7355 94.1412 -48.3262 12.2848 -0.056444 85.0557 -8.80522 -3.42134 47.1212 2.54973 14.3164 1.28527 8.00748 -89.5051 10.8526 2.78783 0.723655 -0.81554 2.81695 0.600149 -23.3685 2.44142 1.52846 -3.35589 2.44139 1.52844 82.3515 -45.816 -113.979 14.8392 -14.0085 -0.151884 -35.4313 -0.641432 -83.1372 -21.1578 -1.49683 4.24576 -99.6189 -41.404 61.1619 -51.1292 15.4661 32.7119 14.9649 24.7395 -46.2397 -10.4189 -0.486135 0.978774 12.937 -7.51835 10.3826 9.31563 -9.51196 3.23094 
-36.7086 89.8011 3.84879 -73.4343 -1.95401 -102.777 -171.965 40.2405 90.1447 -71.9093 16.6393 -1.51551 45.7518 -9.87056 3.43276 32.7525 4.26724 5.03268 177.861 13.0747 91.936 -37.5694 2.97898 -1.55514 75.667 -5.84825 -2.83835 47.5226 2.58706 13.97 1.54674 7.97943 -89.3805 10.9038 3.366 0.915103 -0.762977 3.40298 0.765903 -23.3237 2.93528 1.88511 -3.31103 2.93527 1.8851 83.8381 -44.22 -112.251 16.3749 -16.2419 -4.24833 -39.8206 6.70315 -89.7941 -21.6558 -2.01245 7.13438 -98.888 -40.0417 61.7389 -56.8164 15.8215 38.9228 20.9371 24.7072 -54.7238 -14.6907 -0.678182 1.09622 12.577 -8.07084 9.18183 8.40954 -9.70014 3.68955 
-47.0511 92.6331 3.81668 -73.7539 -0.632526 -102.859 -172.814 43.2582 88.7611 -59.6939 13.4598 -1.67576 46.2678 -10.4353 1.31063 30.1564 0.781888 8.16314 177.105 3.06856 88.997 -25.1275 -5.88477 -2.04408 53.4047 1.51156 1.2815 52.1639 3.79948 16.2239 1.70235 7.92569 -89.3079 11.0089 3.70965 1.02224 -0.657032 3.75101 0.857777 -23.2231 3.23082 2.09081 -3.21042 3.2308 2.0908 84.5733 -43.4144 -111.371 17.2831 -17.4307 -5.02067 -41.678 15.0136 -99.293 -20.5175 -2.17444 8.80368 -98.1959 -38.5022 62.1966 -61.363 16.6274 43.2669 19.7794 19.7343 -58.4215 -14.1847 -0.337833 -1.97954 13.4266 -8.50455 8.7321 6.95564 -10.2291 2.37552 
-57.6243 94.7892 4.09104 -73.6945 0.735909 -102.655 -172.414 42.7234 86.9734 -40.7333 16.3123 -3.31106 43.3914 -12.9227 -1.54052 31.3639 2.34192 8.2214 176.163 -2.86213 86.3794 -18.8446 -11.1707 -2.93044 39.1649 6.19291 6.12373 37.6484 0.843779 10.6229 1.86101 7.84699 -89.3391 11.1678 4.01117 0.923494 -0.497188 4.04792 0.745773 -23.0706 3.54801 2.0876 -3.05799 3.54802 2.0876 85.7731 -41.5906 -110.077 19.9403 -17.5198 -2.67471 -42.8659 20.585 -104.335 -22.7718 -2.61593 10.1086 -98.0468 -38.2116 62.3153 -63.6581 17.0578 45.6642 17.4235 14.3212 -61.2531 -16.6965 -0.160696 -3.83557 13.904 -7.81213 9.91979 6.03204 -9.97203 1.70672 
-68.4586 96.4954 4.48393 -73.6449 2.52172 -101.214 -172.247 39.1568 86.2571 -18.249 20.246 -5.09973 40.726 -14.4861 -4.28954 33.6421 5.35729 5.08784 177.149 -5.41441 87.0561 -22.5945 -13.0115 -4.56991 36.5455 7.00713 7.28315 25.9203 -0.658572 4.48963 2.03033 7.73568 -89.5148 11.3983 4.26642 0.53746 -0.265656 4.28595 0.348808 -22.8491 3.90736 1.79671 -2.8364 3.90738 1.79671 86.2001 -41.5815 -109.369 20.3376 -14.851 0.564807 -39.4528 19.8684 -106.101 -26.1746 -2.88831 9.43668 -97.6121 -38.6323 63.2117 -64.6875 16.8043 45.8917 17.2184 11.56 -63.7854 -16.7769 -0.0546095 -4.66485 13.4927 -7.41703 11.039 5.68845 -9.9661 0.270087 
-78.7263 97.0037 5.00109 -75.3901 4.06524 -98.3052 -172.475 36.2021 87.0133 -6.90828 14.7268 -5.69385 41.0262 -14.2739 -6.578 38.7577 11.4309 3.82542 178.193 -5.17902 88.7351 -33.6326 -6.01902 -4.7672 39.1548 5.09532 5.17376 24.9885 -1.0212 8.1392 2.07219 7.72602 -89.8665 11.4326 4.18529 -0.158228 -0.231607 4.17428 -0.342612 -22.8185 4.03903 1.10906 -2.80587 4.03903 1.10906 85.7599 -42.9213 -109.616 19.1582 -10.0908 4.19578 -34.731 14.2167 -103.423 -27.262 -2.80409 8.30855 -97.2228 -39.657 64.2719 -63.6365 15.1331 44.2783 17.289 10.6298 -64.2599 -14.6249 -0.151491 -3.76181 12.4068 -6.74356 11.159 6.22143 -9.31724 -0.555447 
-88.8161 96.2822 5.37761 -78.3136 3.43242 -96.8641 -171.484 33.3809 84.9043 -6.17415 11.7894 -6.97942 41.1463 -14.2494 -8.49764 37.7253 10.3864 6.2981 177.964 -3.13077 89.2552 -48.2721 -0.84968 -4.99104 39.475 4.47107 4.59536 21.6008 -1.33141 6.9983 1.805 7.84268 -90.07 11.2007 3.55994 -0.488947 -0.465489 3.535 -0.645358 -23.0393 3.54207 0.60494 -3.02662 3.54214 0.604964 84.5981 -45.4035 -110.602 16.7285 -5.49781 8.34779 -30.5679 7.26804 -97.3777 -29.7931 -2.76572 6.94694 -97.3278 -41.0458 64.6594 -60.5473 13.5043 41.1062 19.0976 11.5824 -63.9927 -12.2242 -0.25925 -2.4123 10.6385 -6.21896 10.9363 7.57649 -8.65344 -1.01672 
-98.8413 94.3309 5.39739 -80.8953 3.20582 -96.4221 -170.455 29.9199 81.9988 -10.1352 18.4576 -8.19651 42.0013 -13.302 -5.78348 35.6203 7.62068 1.14719 176.738 1.58035 87.6826 -65.113 5.8026 -4.64362 40.5819 3.19376 3.39196 19.5724 -1.56916 6.9123 1.49817 7.94385 -90.115 10.9954 2.92931 -0.508044 -0.672343 2.90412 -0.636594 -23.2339 2.94645 0.396601 -3.22123 2.94645 0.396603 83.1126 -47.915 -112.009 15.144 -1.27225 12.4886 -25.1269 0.690011 -90.2608 -30.2597 -2.40341 5.08733 -98.9506 -42.7927 62.7938 -55.6268 11.6823 37.5915 21.0178 12.7571 -63.0487 -7.70825 -0.30726 0.0289625 8.38714 -5.01954 10.7565 9.10149 -7.30977 -1.35504 
-108.642 92.1969 4.9998 -83.3053 4.935 -97.0782 -168.043 29.784 79.7183 -29.6379 20.1763 -9.34265 58.0239 0.947812 9.05766 30.3681 2.78587 -13.4456 176.952 9.34291 86.9632 -80.3924 10.4377 -5.27038 42.7572 1.244 1.54789 23.5753 -1.12909 7.21686 1.19781 8.09206 -89.8408 10.691 2.45885 0.0923469 -0.977608 2.46051 -0.0160298 -23.5299 2.31736 0.827466 -3.5173 2.31735 0.827457 82.323 -50.3893 -112.301 15.1663 2.15321 13.4312 -25.0325 -3.31471 -75.2628 -27.278 -2.31172 5.86177 -100.489 -43.7684 60.8164 -48.7453 9.98111 34.0803 22.048 13.1915 -62.0861 -3.23891 -0.112419 1.51112 6.57822 -3.53984 7.92054 11.2924 -5.0287 -0.183203 
-118.029 90.0239 3.94698 -83.0036 5.47884 -99.4641 -168.142 27.8436 77.2519 -39.2045 21.2011 -8.72541 62.5126 9.25057 16.5683 45.3104 15.126 -17.78 179.336 21.2864 85.5249 -92.2026 12.9001 -5.8524 41.5852 0.250051 0.735445 28.2997 -0.439478 6.162 0.617531 8.10273 -89.3003 10.6599 1.55219 1.24955 -1.01061 1.60566 1.18002 -23.5453 1.10493 1.65822 -3.53262 1.10491 1.65821 81.7502 -51.4782 -112.754 16.8288 2.34238 12.6235 -21.1459 -9.92996 -62.1256 -22.4493 -2.22928 7.38978 -101.748 -44.2623 59.1111 -39.8466 9.56943 28.3634 25.0167 14.776 -62.353 2.81723 0.37301 5.8596 8.73245 -1.16851 5.1726 10.5298 -2.19033 0.436798 
